<svg xmlns="http://www.w3.org/2000/svg" xmlns:xlink="http://www.w3.org/1999/xlink"><symbol id="logo__default" viewBox="0 0 87 24"><g fill="none"><rect x="3" y="3" width="8" height="8" rx="1" fill="#646CFF"/><rect x="12.5" y="2.5" width="9" height="9" rx="4.5" fill="#BD34FE"/><rect x="3" y="13" width="8" height="8" rx="1" fill="#646CFF"/><rect x="13" y="13" width="8" height="8" rx="1" fill="#646CFF"/><path d="M33.148 18V6.364h4.454c.841 0 1.54.132 2.097.397.56.262.979.62 1.256 1.074.28.455.42.97.42 1.546 0 .473-.09.878-.273 1.216a2.294 2.294 0 0 1-.733.812c-.306.208-.65.358-1.028.449v.114c.413.022.809.15 1.187.38.383.227.696.55.938.966.242.417.364.92.364 1.511 0 .603-.146 1.144-.438 1.625-.292.478-.731.855-1.318 1.131-.587.277-1.326.415-2.216.415h-4.71Zm2.108-1.761h2.267c.765 0 1.316-.146 1.653-.438.341-.295.511-.674.511-1.136a1.74 1.74 0 0 0-.982-1.591c-.315-.163-.69-.245-1.125-.245h-2.324v3.41Zm0-4.927h2.085c.364 0 .691-.066.983-.198.291-.137.52-.328.687-.574.17-.25.256-.546.256-.887 0-.45-.159-.822-.477-1.113-.315-.292-.782-.438-1.404-.438h-2.13v3.21Zm13.879 3.018V9.272h2.057V18h-1.995v-1.551h-.09a2.63 2.63 0 0 1-.972 1.199c-.447.31-.998.466-1.654.466-.571 0-1.077-.127-1.517-.381a2.646 2.646 0 0 1-1.022-1.12c-.246-.492-.37-1.086-.37-1.784V9.273h2.057v5.238c0 .553.152.993.455 1.319.303.325.7.488 1.193.488.303 0 .597-.074.88-.221a1.79 1.79 0 0 0 .7-.66c.185-.295.278-.664.278-1.107ZM53.307 18V9.273h2.057V18h-2.057Zm1.034-9.966a1.2 1.2 0 0 1-.841-.324 1.044 1.044 0 0 1-.352-.79c0-.31.117-.573.352-.79a1.19 1.19 0 0 1 .84-.329c.33 0 .61.11.842.33.235.216.352.479.352.79 0 .306-.117.57-.352.79a1.187 1.187 0 0 1-.841.323Zm5.194-1.67V18H57.48V6.364h2.056Zm5.354 11.79a3.302 3.302 0 0 1-1.84-.529c-.542-.352-.97-.864-1.285-1.534-.314-.67-.471-1.485-.471-2.443 0-.97.159-1.788.477-2.455.322-.67.756-1.176 1.301-1.517a3.344 3.344 0 0 1 1.824-.517c.511 0 .932.087 1.261.261.33.17.591.377.784.62.194.238.343.464.45.676h.084V6.364h2.063V18h-2.023v-1.375h-.125c-.106.212-.26.438-.46.676-.2.235-.466.436-.796.602-.329.167-.744.25-1.244.25Zm.574-1.688c.436 0 .807-.117 1.114-.352.306-.239.54-.57.699-.995.159-.424.238-.918.238-1.483 0-.564-.08-1.055-.238-1.471-.156-.417-.387-.74-.694-.972-.303-.23-.676-.346-1.119-.346-.458 0-.84.119-1.148.357-.306.24-.537.569-.693.99-.155.42-.233.9-.233 1.442 0 .546.078 1.033.233 1.46.16.425.392.76.699 1.006.31.243.691.364 1.142.364Zm10.13 1.704c-.876 0-1.631-.181-2.268-.545a3.694 3.694 0 0 1-1.46-1.557c-.34-.674-.511-1.468-.511-2.38 0-.898.17-1.686.511-2.364a3.866 3.866 0 0 1 1.443-1.591c.618-.383 1.343-.574 2.176-.574a4.41 4.41 0 0 1 1.523.261c.481.17.905.436 1.273.796.371.36.663.818.875 1.375.212.553.318 1.212.318 1.977v.63H72.32v-1.386h5.18a2.212 2.212 0 0 0-.255-1.05 1.859 1.859 0 0 0-.7-.734 1.965 1.965 0 0 0-1.033-.267c-.42 0-.79.103-1.108.307a2.11 2.11 0 0 0-.745.796 2.29 2.29 0 0 0-.266 1.073v1.21c0 .508.092.944.278 1.307.186.36.445.637.778.83.334.19.724.284 1.17.284.3 0 .57-.042.813-.125.243-.087.453-.214.63-.38.179-.167.313-.374.404-.62l1.92.216c-.12.508-.352.95-.692 1.33a3.379 3.379 0 0 1-1.296.875c-.526.204-1.129.306-1.807.306Zm5.62-.17V9.273h1.994v1.454h.091c.16-.504.432-.892.819-1.165.39-.276.835-.414 1.335-.414.113 0 .24.005.38.017.144.007.264.02.358.04v1.892a2.167 2.167 0 0 0-.414-.08 3.82 3.82 0 0 0-.54-.04 2.08 2.08 0 0 0-1.012.245c-.295.159-.528.38-.698.664a1.88 1.88 0 0 0-.256.983V18h-2.057Z" fill="CurrentColor" fill-opacity=".92"/></g></symbol><view id="icon__arrow--down-view" viewBox="0 0 24 24"/><use href="#icon__arrow--down" width="24" height="24" x="0" y="0"/><view id="icon__default-view" viewBox="0 80 24 24"/><use href="#icon__default" width="24" height="24" x="0" y="80"/></svg>